<svg xmlns="http://www.w3.org/2000/svg" id="canvas" viewBox="286.772 342.282 1219.251 172.089"><path d="M 338.91,413.88 C 338.58 413.06, 337.83 412.24, 336.38 411.27 C 334.92 410.31, 333.89 409.60, 331.63 409.05 C 329.38 408.50, 327.80 408.07, 325.12 408.53 C 322.44 409.00, 321.05 409.37, 318.24 411.37 C 315.43 413.36, 314.00 414.74, 311.08 418.50 C 308.16 422.27, 306.51 424.71, 303.63 430.20 C 300.76 435.69, 299.07 439.30, 296.71 445.95 C 294.34 452.59, 293.18 456.72, 291.81 463.42 C 290.43 470.12, 290.00 473.78, 289.82 479.43 C 289.65 485.07, 289.91 487.68, 290.93 491.63 C 291.96 495.58, 292.89 497.16, 294.95 499.18 C 297.01 501.20, 298.58 501.65, 301.24 501.71 C 303.90 501.78, 305.52 501.34, 308.26 499.51 C 311.00 497.69, 312.30 496.23, 314.94 492.60 C 317.58 488.97, 318.89 486.59, 321.46 481.37 C 324.04 476.15, 325.36 472.80, 327.84 466.51 C 330.31 460.22, 331.62 456.37, 333.85 449.92 C 336.08 443.48, 337.19 439.78, 338.98 434.30 C 340.78 428.83, 341.77 426.19, 342.83 422.56 C 343.89 418.93, 344.20 417.56, 344.29 416.17 C 344.37 414.78, 343.72 414.49, 343.26 415.62 C 342.80 416.74, 342.36 418.10, 341.98 421.81 C 341.60 425.53, 341.64 428.47, 341.38 434.19 C 341.11 439.92, 340.91 443.76, 340.65 450.44 C 340.39 457.12, 340.19 461.21, 340.08 467.59 C 339.97 473.97, 339.91 477.23, 340.10 482.33 C 340.29 487.44, 340.37 489.63, 341.03 493.11 C 341.69 496.60, 342.14 497.93, 343.39 499.78 C 344.64 501.62, 345.74 501.93, 347.28 502.34 C 348.82 502.75, 349.83 502.35, 351.11 501.83 C 352.39 501.31, 353.07 500.68, 353.68 499.74 C 354.30 498.80, 354.39 497.81, 354.19 497.13 C 354.00 496.45, 353.31 496.22, 352.69 496.32 C 352.07 496.43, 351.67 497.09, 351.08 497.66 C 350.49 498.23, 350.38 498.68, 349.73 499.17 C 349.07 499.66, 348.64 500.26, 347.80 500.11 C 346.97 499.96, 346.39 499.93, 345.56 498.43 C 344.72 496.93, 344.29 495.84, 343.63 492.60 C 342.96 489.36, 342.56 487.22, 342.24 482.23 C 341.92 477.23, 341.95 473.96, 342.05 467.62 C 342.15 461.28, 342.34 457.19, 342.74 450.54 C 343.13 443.90, 343.51 440.07, 344.02 434.37 C 344.53 428.68, 345.13 425.81, 345.29 422.05 C 345.45 418.29, 345.35 416.88, 344.84 415.58 C 344.33 414.29, 343.63 414.34, 342.73 415.59 C 341.83 416.83, 341.47 418.18, 340.33 421.80 C 339.20 425.43, 338.70 428.19, 337.05 433.70 C 335.40 439.20, 334.29 442.90, 332.09 449.32 C 329.88 455.74, 328.56 459.59, 326.03 465.79 C 323.51 472.00, 322.12 475.32, 319.46 480.34 C 316.79 485.37, 315.34 487.63, 312.72 490.91 C 310.11 494.20, 308.69 495.15, 306.39 496.76 C 304.09 498.36, 303.13 498.83, 301.22 498.94 C 299.30 499.04, 298.43 498.86, 296.82 497.28 C 295.22 495.69, 294.20 494.58, 293.20 491.02 C 292.19 487.45, 291.72 484.92, 291.79 479.47 C 291.87 474.03, 292.26 470.36, 293.60 463.78 C 294.93 457.21, 296.09 453.10, 298.48 446.58 C 300.87 440.07, 302.60 436.50, 305.53 431.22 C 308.46 425.94, 310.21 423.58, 313.14 420.18 C 316.06 416.78, 317.65 415.78, 320.15 414.24 C 322.66 412.70, 323.57 412.67, 325.66 412.48 C 327.75 412.29, 328.78 412.87, 330.60 413.31 C 332.42 413.75, 333.29 414.27, 334.78 414.68 C 336.27 415.10, 337.22 415.55, 338.04 415.39 C 338.87 415.23, 339.24 414.71, 338.91 413.88" style="stroke: black; fill: black;"/><path d="M 384.24,357.54 C 383.71 358.33, 383.28 358.89, 382.99 361.58 C 382.69 364.27, 382.91 366.05, 382.75 371.01 C 382.60 375.98, 382.49 379.30, 382.20 386.40 C 381.91 393.51, 381.74 398.08, 381.31 406.53 C 380.88 414.97, 380.54 419.92, 380.05 428.63 C 379.55 437.33, 379.23 442.01, 378.83 450.05 C 378.44 458.09, 378.24 462.12, 378.06 468.82 C 377.87 475.52, 377.83 478.59, 377.90 483.57 C 377.97 488.54, 377.93 490.58, 378.40 493.71 C 378.88 496.85, 379.51 497.75, 380.26 499.24 C 381.02 500.73, 381.54 500.82, 382.18 501.15 C 382.81 501.49, 383.19 501.07, 383.42 500.91 C 383.66 500.75, 383.45 500.46, 383.36 500.34 C 383.27 500.21, 383.14 500.66, 382.95 500.28 C 382.76 499.89, 382.80 499.79, 382.43 498.39 C 382.05 496.99, 381.60 496.26, 381.10 493.28 C 380.59 490.30, 380.17 488.38, 379.88 483.49 C 379.60 478.61, 379.58 475.53, 379.66 468.85 C 379.74 462.18, 379.91 458.15, 380.27 450.12 C 380.63 442.09, 380.95 437.41, 381.47 428.71 C 381.99 420.01, 382.35 415.06, 382.88 406.62 C 383.42 398.18, 383.67 393.60, 384.16 386.51 C 384.66 379.42, 384.96 376.11, 385.38 371.16 C 385.80 366.22, 386.20 364.49, 386.25 361.79 C 386.30 359.09, 386.03 358.50, 385.63 357.65 C 385.22 356.80, 384.76 356.75, 384.24 357.54" style="stroke: black; fill: black;"/><path d="M 442.91,406.32 C 442.43 405.78, 441.74 405.38, 440.37 405.28 C 439.00 405.17, 438.04 405.06, 436.07 405.81 C 434.09 406.56, 432.75 406.92, 430.51 409.03 C 428.26 411.14, 427.27 412.65, 424.85 416.34 C 422.42 420.04, 420.96 422.32, 418.38 427.48 C 415.80 432.65, 414.33 435.90, 411.97 442.17 C 409.60 448.44, 408.28 452.27, 406.57 458.83 C 404.87 465.39, 404.08 469.06, 403.44 474.96 C 402.80 480.87, 402.75 483.72, 403.36 488.35 C 403.97 492.99, 404.60 495.03, 406.51 498.14 C 408.42 501.25, 409.87 502.45, 412.89 503.89 C 415.92 505.33, 417.85 505.58, 421.62 505.35 C 425.39 505.12, 427.91 504.17, 431.75 502.75 C 435.58 501.33, 437.81 500.08, 440.78 498.23 C 443.75 496.37, 445.60 494.71, 446.59 493.49 C 447.57 492.28, 447.17 491.75, 445.70 492.14 C 444.23 492.54, 442.25 493.95, 439.23 495.46 C 436.21 496.98, 434.17 498.35, 430.60 499.72 C 427.03 501.08, 424.69 501.98, 421.39 502.29 C 418.09 502.61, 416.63 502.39, 414.08 501.29 C 411.54 500.19, 410.37 499.44, 408.66 496.79 C 406.94 494.14, 406.17 492.37, 405.51 488.05 C 404.85 483.72, 404.79 480.91, 405.36 475.16 C 405.93 469.41, 406.68 465.75, 408.37 459.29 C 410.05 452.84, 411.39 449.02, 413.80 442.87 C 416.21 436.72, 417.73 433.51, 420.43 428.55 C 423.12 423.59, 424.70 421.36, 427.27 418.08 C 429.84 414.81, 431.21 413.88, 433.28 412.18 C 435.36 410.47, 436.17 410.26, 437.65 409.56 C 439.12 408.85, 439.64 408.97, 440.67 408.65 C 441.69 408.34, 442.33 408.45, 442.78 407.98 C 443.22 407.52, 443.39 406.86, 442.91 406.32" style="stroke: black; fill: black;"/><path d="M 497.12,410.30 C 496.71 409.67, 496.01 409.07, 494.62 408.78 C 493.23 408.48, 492.22 408.22, 490.16 408.82 C 488.09 409.42, 486.59 409.66, 484.30 411.79 C 482.02 413.91, 480.99 415.47, 478.73 419.44 C 476.46 423.42, 475.17 425.98, 472.97 431.66 C 470.78 437.33, 469.46 441.04, 467.74 447.82 C 466.01 454.59, 465.19 458.80, 464.33 465.53 C 463.48 472.25, 463.25 475.92, 463.47 481.45 C 463.69 486.99, 464.06 489.45, 465.44 493.20 C 466.82 496.95, 467.92 498.38, 470.36 500.20 C 472.80 502.01, 474.55 502.40, 477.63 502.26 C 480.70 502.12, 482.53 501.47, 485.74 499.49 C 488.94 497.50, 490.64 496.04, 493.65 492.33 C 496.66 488.62, 498.18 486.19, 500.79 480.92 C 503.39 475.65, 504.68 472.32, 506.66 465.99 C 508.65 459.67, 509.54 455.82, 510.72 449.30 C 511.89 442.78, 512.25 439.16, 512.53 433.39 C 512.82 427.63, 512.64 424.87, 512.14 420.46 C 511.64 416.04, 511.18 414.21, 510.03 411.31 C 508.87 408.41, 507.91 407.44, 506.35 405.96 C 504.80 404.47, 503.63 404.27, 502.24 403.89 C 500.84 403.51, 499.98 403.78, 499.38 404.06 C 498.77 404.33, 498.80 404.85, 499.20 405.26 C 499.61 405.68, 500.36 405.60, 501.39 406.14 C 502.42 406.68, 503.17 406.70, 504.36 407.95 C 505.54 409.21, 506.21 409.87, 507.31 412.43 C 508.41 414.99, 509.21 416.59, 509.86 420.76 C 510.51 424.94, 510.75 427.67, 510.56 433.31 C 510.36 438.95, 510.02 442.55, 508.87 448.97 C 507.73 455.39, 506.83 459.21, 504.82 465.41 C 502.81 471.60, 501.48 474.89, 498.84 479.94 C 496.21 484.99, 494.59 487.27, 491.65 490.66 C 488.71 494.04, 486.99 495.17, 484.15 496.87 C 481.30 498.56, 479.86 498.91, 477.42 499.13 C 474.98 499.35, 473.91 499.33, 471.96 497.98 C 470.00 496.63, 468.93 495.69, 467.63 492.37 C 466.33 489.04, 465.76 486.68, 465.47 481.36 C 465.17 476.03, 465.35 472.37, 466.17 465.76 C 467.00 459.15, 467.82 454.95, 469.59 448.30 C 471.37 441.65, 472.72 437.96, 475.04 432.49 C 477.36 427.02, 478.78 424.49, 481.17 420.96 C 483.56 417.43, 484.96 416.53, 487.00 414.86 C 489.04 413.19, 489.89 413.14, 491.37 412.60 C 492.85 412.07, 493.33 412.30, 494.39 412.17 C 495.45 412.04, 496.13 412.32, 496.67 411.95 C 497.22 411.57, 497.53 410.93, 497.12 410.30" style="stroke: black; fill: black;"/><path d="M 540.27,345.67 C 539.74 346.25, 539.27 346.54, 538.93 348.77 C 538.59 351.00, 538.74 352.40, 538.56 356.82 C 538.38 361.24, 538.38 364.11, 538.04 370.86 C 537.69 377.61, 537.47 382.07, 536.84 390.56 C 536.21 399.06, 535.74 404.19, 534.87 413.33 C 533.99 422.48, 533.40 427.58, 532.46 436.30 C 531.52 445.01, 530.98 449.55, 530.19 456.91 C 529.40 464.26, 529.06 467.71, 528.51 473.08 C 527.96 478.46, 527.43 480.61, 527.45 483.78 C 527.47 486.95, 527.79 488.00, 528.59 488.94 C 529.39 489.87, 530.31 489.93, 531.45 488.45 C 532.59 486.97, 533.04 485.44, 534.27 481.53 C 535.51 477.63, 535.92 474.73, 537.61 468.93 C 539.31 463.13, 540.40 459.19, 542.77 452.53 C 545.14 445.87, 546.66 441.75, 549.48 435.63 C 552.29 429.50, 554.00 426.31, 556.84 421.91 C 559.68 417.50, 561.36 415.84, 563.70 413.60 C 566.03 411.36, 566.96 410.87, 568.50 410.70 C 570.05 410.54, 570.32 410.89, 571.42 412.79 C 572.52 414.68, 573.11 416.17, 574.00 420.18 C 574.89 424.18, 575.34 427.13, 575.88 432.81 C 576.42 438.50, 576.52 442.21, 576.68 448.61 C 576.84 455.01, 576.68 458.81, 576.70 464.81 C 576.71 470.81, 576.60 473.87, 576.75 478.59 C 576.89 483.31, 576.79 485.30, 577.42 488.42 C 578.05 491.54, 578.56 492.72, 579.91 494.18 C 581.27 495.64, 582.50 495.72, 584.21 495.72 C 585.91 495.73, 587.17 495.13, 588.44 494.20 C 589.71 493.27, 590.42 491.96, 590.57 491.06 C 590.73 490.15, 590.04 489.62, 589.21 489.67 C 588.39 489.73, 587.49 490.65, 586.44 491.35 C 585.39 492.04, 584.90 492.88, 583.95 493.16 C 582.99 493.43, 582.39 493.79, 581.65 492.73 C 580.91 491.67, 580.76 490.72, 580.24 487.87 C 579.72 485.02, 579.33 483.10, 579.03 478.48 C 578.73 473.87, 578.79 470.78, 578.74 464.80 C 578.68 458.82, 578.86 455.00, 578.76 448.57 C 578.67 442.13, 578.66 438.42, 578.27 432.62 C 577.89 426.82, 577.73 423.85, 576.83 419.57 C 575.92 415.28, 575.46 413.38, 573.76 411.19 C 572.07 408.99, 570.71 408.48, 568.35 408.60 C 566.00 408.72, 564.64 409.34, 561.99 411.79 C 559.34 414.23, 557.96 416.21, 555.12 420.82 C 552.28 425.44, 550.63 428.64, 547.79 434.85 C 544.95 441.06, 543.43 445.19, 540.93 451.86 C 538.43 458.53, 537.23 462.45, 535.29 468.19 C 533.35 473.94, 532.42 476.74, 531.24 480.59 C 530.06 484.45, 529.73 485.89, 529.41 487.47 C 529.08 489.06, 529.48 489.25, 529.61 488.52 C 529.73 487.79, 529.88 486.89, 530.03 483.84 C 530.18 480.78, 530.02 478.59, 530.35 473.24 C 530.68 467.88, 530.98 464.41, 531.68 457.06 C 532.37 449.70, 532.90 445.16, 533.81 436.44 C 534.73 427.72, 535.33 422.62, 536.25 413.47 C 537.18 404.32, 537.66 399.19, 538.43 390.70 C 539.19 382.20, 539.48 377.74, 540.09 371.00 C 540.70 364.27, 541.06 361.40, 541.46 357.01 C 541.85 352.61, 542.04 351.27, 542.07 349.03 C 542.09 346.80, 541.94 346.52, 541.59 345.85 C 541.23 345.18, 540.80 345.08, 540.27 345.67" style="stroke: black; fill: black;"/><path d="M 630.53,417.85 C 630.21 417.18, 629.61 416.55, 628.33 416.14 C 627.05 415.72, 626.10 415.38, 624.14 415.76 C 622.19 416.15, 620.73 416.20, 618.57 418.06 C 616.41 419.91, 615.39 421.32, 613.33 425.03 C 611.28 428.74, 610.13 431.17, 608.30 436.61 C 606.47 442.06, 605.46 445.73, 604.18 452.25 C 602.90 458.77, 602.32 462.83, 601.92 469.21 C 601.52 475.58, 601.56 479.06, 602.18 484.12 C 602.81 489.17, 603.35 491.36, 605.04 494.48 C 606.72 497.60, 608.06 498.63, 610.62 499.73 C 613.17 500.83, 614.92 500.86, 617.83 499.97 C 620.73 499.08, 622.35 498.02, 625.13 495.29 C 627.91 492.57, 629.32 490.70, 631.74 486.33 C 634.17 481.97, 635.38 479.11, 637.24 473.46 C 639.11 467.80, 639.95 464.27, 641.09 458.07 C 642.23 451.88, 642.59 448.26, 642.96 442.46 C 643.33 436.66, 643.24 433.69, 642.94 429.07 C 642.64 424.46, 642.30 422.46, 641.45 419.38 C 640.61 416.30, 639.80 415.31, 638.72 413.67 C 637.64 412.03, 636.97 411.75, 636.04 411.17 C 635.10 410.60, 634.60 410.75, 634.04 410.78 C 633.49 410.81, 633.39 411.09, 633.27 411.32 C 633.14 411.55, 633.33 411.76, 633.42 411.94 C 633.52 412.12, 633.50 412.00, 633.75 412.20 C 633.99 412.40, 634.12 412.36, 634.65 412.93 C 635.19 413.51, 635.62 413.62, 636.41 415.07 C 637.21 416.52, 637.78 417.35, 638.63 420.19 C 639.47 423.03, 640.17 424.83, 640.62 429.27 C 641.08 433.70, 641.20 436.65, 640.90 442.34 C 640.60 448.03, 640.25 451.62, 639.10 457.70 C 637.95 463.78, 637.09 467.28, 635.17 472.75 C 633.25 478.22, 631.95 480.99, 629.52 485.05 C 627.08 489.11, 625.55 490.70, 623.01 493.07 C 620.46 495.44, 619.08 496.04, 616.80 496.89 C 614.52 497.74, 613.51 498.03, 611.61 497.31 C 609.70 496.59, 608.73 495.96, 607.27 493.27 C 605.82 490.57, 605.00 488.62, 604.32 483.84 C 603.65 479.05, 603.53 475.56, 603.90 469.33 C 604.28 463.09, 604.86 459.04, 606.19 452.65 C 607.52 446.27, 608.59 442.62, 610.55 437.41 C 612.51 432.21, 613.87 429.87, 616.00 426.63 C 618.12 423.39, 619.37 422.62, 621.16 421.21 C 622.96 419.80, 623.66 419.92, 624.98 419.59 C 626.29 419.26, 626.75 419.58, 627.74 419.56 C 628.73 419.53, 629.37 419.80, 629.93 419.46 C 630.49 419.12, 630.85 418.51, 630.53 417.85" style="stroke: black; fill: black;"/><path d="M 674.40,347.71 C 673.84 348.38, 673.35 348.75, 672.92 351.27 C 672.49 353.80, 672.61 355.46, 672.25 360.34 C 671.90 365.21, 671.71 368.51, 671.15 375.66 C 670.59 382.81, 670.23 387.35, 669.46 396.08 C 668.70 404.80, 668.20 410.04, 667.35 419.27 C 666.50 428.50, 666.03 433.53, 665.22 442.22 C 664.41 450.91, 663.91 455.33, 663.30 462.71 C 662.69 470.10, 662.49 473.57, 662.19 479.15 C 661.88 484.73, 661.69 487.06, 661.79 490.59 C 661.90 494.12, 662.22 495.10, 662.71 496.81 C 663.20 498.52, 663.71 498.70, 664.24 499.15 C 664.77 499.60, 665.14 499.16, 665.37 499.05 C 665.59 498.95, 665.40 498.71, 665.35 498.61 C 665.30 498.51, 665.19 499.01, 665.11 498.56 C 665.03 498.11, 665.13 497.98, 664.96 496.36 C 664.78 494.75, 664.44 493.92, 664.25 490.49 C 664.05 487.06, 663.88 484.75, 663.99 479.22 C 664.09 473.68, 664.26 470.20, 664.77 462.82 C 665.29 455.45, 665.78 451.03, 666.56 442.35 C 667.35 433.66, 667.82 428.62, 668.70 419.40 C 669.59 410.17, 670.11 404.93, 670.99 396.22 C 671.87 387.51, 672.30 382.96, 673.09 375.84 C 673.87 368.72, 674.31 365.44, 674.91 360.60 C 675.52 355.76, 675.94 354.18, 676.10 351.65 C 676.27 349.11, 676.07 348.70, 675.73 347.91 C 675.39 347.12, 674.97 347.03, 674.40 347.71" style="stroke: black; fill: black;"/><path d="M 698.26,415.34 C 697.80 415.95, 697.52 416.25, 697.30 418.36 C 697.07 420.47, 697.14 421.90, 697.12 425.90 C 697.10 429.89, 697.25 432.70, 697.20 438.34 C 697.16 443.98, 697.14 447.78, 696.90 454.09 C 696.65 460.39, 696.39 464.07, 695.99 469.87 C 695.59 475.68, 695.29 478.60, 694.88 483.12 C 694.47 487.63, 693.96 489.66, 693.95 492.44 C 693.94 495.22, 694.26 496.21, 694.82 497.03 C 695.39 497.85, 696.10 497.86, 696.77 496.53 C 697.44 495.20, 697.71 493.93, 698.18 490.38 C 698.66 486.83, 698.42 484.19, 699.15 478.79 C 699.88 473.38, 700.32 469.70, 701.82 463.34 C 703.31 456.99, 704.42 453.11, 706.62 447.00 C 708.83 440.89, 710.27 437.61, 712.86 432.80 C 715.45 427.99, 717.03 425.88, 719.57 422.95 C 722.11 420.02, 723.53 419.23, 725.56 418.15 C 727.59 417.06, 728.30 416.86, 729.72 417.52 C 731.14 418.18, 731.54 418.95, 732.64 421.47 C 733.74 423.98, 734.48 425.81, 735.21 430.09 C 735.93 434.37, 736.14 437.35, 736.26 442.85 C 736.39 448.34, 736.20 451.87, 735.84 457.57 C 735.47 463.27, 735.08 466.50, 734.45 471.33 C 733.83 476.15, 733.13 478.43, 732.71 481.70 C 732.30 484.97, 732.15 486.27, 732.39 487.68 C 732.63 489.09, 733.14 489.43, 733.92 488.76 C 734.69 488.08, 735.36 487.23, 736.27 484.31 C 737.19 481.40, 737.21 479.08, 738.49 474.17 C 739.76 469.27, 740.56 465.81, 742.66 459.81 C 744.75 453.80, 746.16 450.02, 748.96 444.15 C 751.75 438.29, 753.57 435.06, 756.65 430.49 C 759.72 425.93, 761.56 423.92, 764.34 421.32 C 767.13 418.73, 768.50 418.11, 770.56 417.52 C 772.63 416.93, 773.21 417.06, 774.66 418.37 C 776.10 419.69, 776.69 420.83, 777.79 424.10 C 778.89 427.37, 779.52 429.77, 780.16 434.73 C 780.80 439.69, 780.92 442.98, 780.99 448.91 C 781.05 454.83, 780.82 458.45, 780.49 464.35 C 780.17 470.25, 779.77 473.40, 779.36 478.41 C 778.96 483.41, 778.48 485.74, 778.46 489.38 C 778.43 493.02, 778.57 494.57, 779.24 496.62 C 779.91 498.67, 781.12 499.13, 781.80 499.63 C 782.48 500.13, 782.71 499.82, 782.64 499.11 C 782.58 498.40, 781.77 498.02, 781.48 496.08 C 781.19 494.14, 781.17 492.90, 781.20 489.40 C 781.22 485.90, 781.33 483.55, 781.62 478.56 C 781.90 473.57, 782.28 470.40, 782.61 464.47 C 782.93 458.54, 783.20 454.91, 783.22 448.90 C 783.25 442.89, 783.26 439.59, 782.74 434.43 C 782.23 429.27, 781.94 426.73, 780.66 423.11 C 779.37 419.49, 778.47 417.94, 776.32 416.33 C 774.17 414.72, 772.65 414.41, 769.93 415.06 C 767.20 415.71, 765.70 416.72, 762.70 419.58 C 759.70 422.44, 758.04 424.61, 754.93 429.36 C 751.83 434.10, 750.04 437.36, 747.17 443.30 C 744.30 449.23, 742.87 453.03, 740.58 459.05 C 738.28 465.06, 737.29 468.49, 735.69 473.35 C 734.10 478.22, 733.22 480.37, 732.62 483.38 C 732.02 486.39, 732.38 487.50, 732.70 488.41 C 733.03 489.32, 733.63 489.19, 734.24 487.93 C 734.84 486.68, 735.20 485.40, 735.72 482.13 C 736.24 478.86, 736.37 476.48, 736.84 471.60 C 737.32 466.72, 737.72 463.47, 738.10 457.71 C 738.47 451.96, 738.72 448.43, 738.71 442.82 C 738.71 437.21, 738.67 434.22, 738.06 429.66 C 737.45 425.10, 737.14 422.90, 735.66 420.02 C 734.17 417.15, 732.92 416.14, 730.65 415.28 C 728.39 414.41, 726.92 414.48, 724.33 415.71 C 721.75 416.93, 720.40 418.18, 717.74 421.41 C 715.09 424.64, 713.65 426.87, 711.06 431.85 C 708.47 436.84, 707.06 440.15, 704.81 446.34 C 702.55 452.54, 701.44 456.43, 699.78 462.84 C 698.11 469.24, 697.51 472.93, 696.47 478.35 C 695.44 483.78, 694.97 486.38, 694.61 489.96 C 694.25 493.53, 694.40 494.81, 694.67 496.22 C 694.94 497.62, 695.47 497.70, 695.96 496.97 C 696.44 496.25, 696.85 495.33, 697.11 492.59 C 697.37 489.85, 697.06 487.79, 697.26 483.27 C 697.45 478.76, 697.73 475.83, 698.08 470.01 C 698.44 464.19, 698.71 460.50, 699.05 454.19 C 699.38 447.87, 699.48 444.06, 699.76 438.42 C 700.04 432.77, 700.30 429.97, 700.46 425.97 C 700.62 421.97, 700.71 420.53, 700.54 418.41 C 700.37 416.28, 700.05 415.96, 699.60 415.35 C 699.14 414.74, 698.72 414.74, 698.26 415.34" style="stroke: black; fill: black;"/><path d="M 844.93,427.10 C 845.42 426.58, 845.65 425.89, 845.67 424.71 C 845.70 423.53, 845.72 422.60, 845.04 421.19 C 844.36 419.79, 843.76 418.68, 842.27 417.68 C 840.77 416.67, 839.76 416.20, 837.57 416.17 C 835.38 416.14, 834.00 416.05, 831.33 417.53 C 828.66 419.01, 827.25 420.24, 824.23 423.57 C 821.21 426.91, 819.42 429.07, 816.24 434.20 C 813.06 439.34, 811.23 442.80, 808.34 449.26 C 805.44 455.72, 803.89 459.80, 801.76 466.50 C 799.63 473.20, 798.71 477.00, 797.66 482.76 C 796.62 488.52, 796.36 491.23, 796.52 495.31 C 796.68 499.40, 797.13 500.96, 798.48 503.18 C 799.83 505.39, 801.06 506.01, 803.26 506.38 C 805.46 506.74, 807.01 506.58, 809.47 504.99 C 811.93 503.39, 813.09 501.92, 815.55 498.41 C 818.02 494.90, 819.24 492.62, 821.79 487.44 C 824.35 482.26, 825.74 478.88, 828.33 472.50 C 830.92 466.12, 832.31 462.08, 834.75 455.55 C 837.18 449.02, 838.45 445.27, 840.50 439.86 C 842.55 434.45, 843.85 431.70, 844.99 428.52 C 846.14 425.34, 846.21 424.16, 846.22 423.94 C 846.22 423.72, 845.43 424.58, 845.03 427.43 C 844.63 430.28, 844.63 432.92, 844.22 438.17 C 843.81 443.42, 843.42 447.23, 842.98 453.68 C 842.54 460.13, 842.30 464.14, 842.03 470.40 C 841.76 476.67, 841.60 479.91, 841.63 485.02 C 841.65 490.12, 841.59 492.43, 842.16 495.93 C 842.72 499.43, 843.32 500.85, 844.44 502.52 C 845.56 504.19, 847.00 504.06, 847.77 504.25 C 848.55 504.44, 848.61 504.03, 848.31 503.47 C 848.02 502.92, 846.99 503.08, 846.29 501.48 C 845.59 499.89, 845.32 498.81, 844.82 495.51 C 844.33 492.21, 843.96 489.98, 843.81 484.98 C 843.66 479.98, 843.78 476.72, 844.07 470.49 C 844.36 464.27, 844.68 460.27, 845.24 453.86 C 845.81 447.44, 846.35 443.68, 846.90 438.42 C 847.45 433.16, 848.13 430.56, 847.97 427.55 C 847.81 424.55, 847.16 423.39, 846.10 423.39 C 845.05 423.39, 844.19 424.40, 842.68 427.55 C 841.18 430.71, 840.51 433.68, 838.58 439.16 C 836.64 444.63, 835.42 448.39, 833.02 454.91 C 830.61 461.43, 829.19 465.46, 826.53 471.75 C 823.88 478.05, 822.41 481.40, 819.74 486.38 C 817.06 491.36, 815.62 493.49, 813.16 496.64 C 810.71 499.79, 809.40 500.65, 807.47 502.13 C 805.54 503.62, 804.89 504.09, 803.52 504.05 C 802.15 504.02, 801.55 503.72, 800.62 501.95 C 799.69 500.18, 799.07 498.97, 798.87 495.20 C 798.66 491.43, 798.66 488.72, 799.58 483.09 C 800.51 477.46, 801.39 473.65, 803.48 467.05 C 805.58 460.44, 807.13 456.37, 810.06 450.04 C 812.99 443.72, 814.88 440.30, 818.13 435.41 C 821.38 430.52, 823.29 428.47, 826.32 425.61 C 829.34 422.75, 830.99 422.26, 833.25 421.09 C 835.51 419.92, 836.28 419.84, 837.62 419.76 C 838.96 419.68, 839.28 420.05, 839.96 420.70 C 840.63 421.35, 840.60 422.07, 840.99 423.03 C 841.38 423.99, 841.47 424.63, 841.91 425.49 C 842.36 426.34, 842.60 427.00, 843.21 427.32 C 843.81 427.65, 844.44 427.62, 844.93 427.10" style="stroke: black; fill: black;"/><path d="M 878.75,426.05 C 878.18 426.72, 877.70 427.22, 877.29 429.59 C 876.87 431.96, 876.89 433.65, 876.67 437.91 C 876.44 442.17, 876.39 445.21, 876.15 450.89 C 875.91 456.57, 875.79 460.23, 875.47 466.32 C 875.15 472.40, 874.92 475.94, 874.55 481.32 C 874.17 486.70, 873.80 489.39, 873.59 493.20 C 873.38 497.02, 873.22 498.57, 873.48 500.38 C 873.74 502.20, 874.29 502.68, 874.90 502.28 C 875.52 501.87, 876.24 501.08, 876.56 498.36 C 876.89 495.63, 876.44 493.46, 876.53 488.66 C 876.62 483.85, 876.53 480.46, 877.00 474.34 C 877.48 468.21, 877.86 464.36, 878.93 458.02 C 879.99 451.68, 880.75 448.25, 882.34 442.65 C 883.93 437.05, 884.95 434.37, 886.89 430.00 C 888.84 425.63, 889.95 423.83, 892.06 420.79 C 894.17 417.74, 895.27 416.73, 897.46 414.76 C 899.65 412.80, 900.72 412.21, 903.01 410.96 C 905.30 409.71, 906.47 409.31, 908.89 408.52 C 911.32 407.72, 912.64 407.64, 915.12 406.98 C 917.61 406.32, 919.25 405.95, 921.32 405.23 C 923.39 404.51, 924.18 404.09, 925.48 403.36 C 926.77 402.64, 927.42 402.18, 927.79 401.60 C 928.17 401.03, 928.01 400.67, 927.37 400.48 C 926.72 400.29, 926.02 400.49, 924.59 400.66 C 923.16 400.84, 922.34 400.88, 920.22 401.34 C 918.11 401.80, 916.53 402.25, 914.01 402.98 C 911.49 403.71, 910.17 403.99, 907.62 404.98 C 905.07 405.98, 903.71 406.45, 901.26 407.97 C 898.81 409.49, 897.64 410.30, 895.38 412.59 C 893.12 414.88, 892.06 416.09, 889.97 419.40 C 887.87 422.71, 886.82 424.60, 884.92 429.15 C 883.02 433.69, 882.04 436.41, 880.45 442.12 C 878.85 447.82, 878.11 451.28, 876.96 457.68 C 875.81 464.08, 875.39 467.95, 874.70 474.12 C 874.01 480.29, 873.89 483.69, 873.52 488.52 C 873.16 493.34, 872.73 495.50, 872.88 498.24 C 873.03 500.99, 873.72 501.80, 874.29 502.24 C 874.86 502.69, 875.33 502.25, 875.73 500.47 C 876.13 498.69, 876.10 497.16, 876.31 493.36 C 876.52 489.55, 876.51 486.84, 876.78 481.46 C 877.05 476.07, 877.28 472.53, 877.66 466.44 C 878.04 460.36, 878.24 456.70, 878.67 451.04 C 879.11 445.38, 879.45 442.36, 879.84 438.14 C 880.22 433.92, 880.55 432.30, 880.61 429.92 C 880.67 427.54, 880.51 427.02, 880.14 426.24 C 879.77 425.47, 879.33 425.38, 878.75 426.05" style="stroke: black; fill: black;"/><path d="M 952.87,348.16 C 952.38 348.83, 952.09 349.28, 951.80 351.59 C 951.52 353.89, 951.67 355.34, 951.44 359.69 C 951.21 364.04, 951.16 366.95, 950.66 373.34 C 950.16 379.73, 949.75 383.73, 948.92 391.64 C 948.09 399.55, 947.56 404.22, 946.51 412.87 C 945.46 421.53, 944.82 426.30, 943.66 434.94 C 942.51 443.57, 941.83 448.09, 940.72 456.03 C 939.61 463.96, 939.04 467.93, 938.11 474.61 C 937.17 481.29, 936.70 484.35, 936.05 489.44 C 935.39 494.53, 934.97 496.86, 934.84 500.05 C 934.70 503.24, 935.09 503.99, 935.38 505.40 C 935.67 506.80, 936.00 506.77, 936.30 507.08 C 936.60 507.39, 936.71 507.31, 936.87 506.96 C 937.02 506.60, 936.94 506.66, 937.08 505.30 C 937.22 503.95, 937.38 503.32, 937.56 500.19 C 937.75 497.06, 937.58 494.72, 938.01 489.65 C 938.43 484.57, 938.86 481.50, 939.69 474.81 C 940.51 468.13, 941.06 464.16, 942.13 456.22 C 943.19 448.28, 943.86 443.75, 945.02 435.12 C 946.18 426.48, 946.83 421.71, 947.94 413.05 C 949.05 404.40, 949.61 399.73, 950.58 391.83 C 951.55 383.93, 952.03 379.93, 952.80 373.55 C 953.56 367.17, 953.95 364.27, 954.39 359.92 C 954.84 355.56, 955.05 354.10, 955.03 351.76 C 955.00 349.42, 954.68 348.93, 954.25 348.21 C 953.82 347.49, 953.36 347.48, 952.87 348.16" style="stroke: black; fill: black;"/><path d="M 979.49,415.88 C 978.69 415.75, 977.94 415.71, 976.16 416.55 C 974.38 417.39, 973.14 417.99, 970.59 420.08 C 968.04 422.17, 966.46 423.81, 963.40 427.01 C 960.35 430.21, 958.50 432.27, 955.31 436.07 C 952.11 439.88, 950.27 442.09, 947.43 446.04 C 944.58 449.99, 943.07 452.07, 941.09 455.81 C 939.11 459.56, 938.25 461.40, 937.53 464.75 C 936.81 468.10, 936.80 469.70, 937.48 472.57 C 938.16 475.44, 938.95 476.83, 940.95 479.10 C 942.96 481.38, 944.45 482.40, 947.51 483.96 C 950.57 485.52, 952.48 486.11, 956.24 486.91 C 960.01 487.71, 962.15 487.97, 966.34 487.98 C 970.53 488.00, 972.83 487.84, 977.19 486.99 C 981.54 486.15, 983.83 485.56, 988.13 483.76 C 992.42 481.96, 994.62 480.83, 998.67 478.01 C 1002.73 475.18, 1004.77 473.47, 1008.40 469.64 C 1012.04 465.81, 1013.82 463.51, 1016.84 458.85 C 1019.87 454.19, 1021.30 451.36, 1023.55 446.32 C 1025.80 441.28, 1026.76 438.42, 1028.09 433.66 C 1029.42 428.90, 1029.88 426.42, 1030.18 422.51 C 1030.47 418.60, 1030.44 416.72, 1029.58 414.13 C 1028.71 411.53, 1027.75 410.48, 1025.85 409.52 C 1023.95 408.56, 1022.54 408.31, 1020.08 409.34 C 1017.61 410.38, 1016.16 411.55, 1013.53 414.70 C 1010.91 417.84, 1009.44 420.10, 1006.95 425.06 C 1004.45 430.02, 1003.07 433.32, 1001.07 439.50 C 999.06 445.68, 998.02 449.49, 996.91 455.94 C 995.80 462.40, 995.44 466.01, 995.53 471.79 C 995.62 477.57, 995.98 480.43, 997.36 484.87 C 998.73 489.30, 999.79 491.19, 1002.40 493.97 C 1005.01 496.75, 1006.82 497.72, 1010.39 498.77 C 1013.95 499.81, 1016.11 499.87, 1020.22 499.21 C 1024.34 498.55, 1026.97 497.38, 1030.98 495.48 C 1034.99 493.58, 1037.26 492.00, 1040.27 489.71 C 1043.28 487.42, 1045.10 485.41, 1046.04 484.03 C 1046.99 482.65, 1046.50 482.13, 1045.01 482.80 C 1043.52 483.46, 1041.67 485.35, 1038.61 487.36 C 1035.55 489.36, 1033.49 491.01, 1029.72 492.83 C 1025.94 494.64, 1023.47 495.75, 1019.75 496.42 C 1016.03 497.09, 1014.23 496.99, 1011.12 496.16 C 1008.01 495.33, 1006.53 494.65, 1004.19 492.26 C 1001.86 489.87, 1000.78 488.31, 999.44 484.21 C 998.11 480.10, 997.63 477.34, 997.51 471.75 C 997.38 466.17, 997.70 462.59, 998.80 456.27 C 999.91 449.95, 1000.96 446.17, 1003.02 440.15 C 1005.09 434.14, 1006.56 430.89, 1009.13 426.21 C 1011.71 421.52, 1013.44 419.54, 1015.91 416.73 C 1018.38 413.93, 1019.69 413.23, 1021.47 412.20 C 1023.25 411.16, 1023.76 411.00, 1024.81 411.55 C 1025.87 412.10, 1026.21 412.80, 1026.73 414.96 C 1027.26 417.12, 1027.63 418.72, 1027.45 422.34 C 1027.27 425.96, 1027.01 428.44, 1025.83 433.06 C 1024.65 437.68, 1023.72 440.52, 1021.57 445.44 C 1019.41 450.37, 1018.00 453.15, 1015.05 457.68 C 1012.09 462.21, 1010.34 464.43, 1006.80 468.11 C 1003.26 471.79, 1001.27 473.41, 997.34 476.08 C 993.42 478.74, 991.31 479.79, 987.18 481.45 C 983.05 483.11, 980.86 483.63, 976.70 484.36 C 972.54 485.08, 970.34 485.19, 966.39 485.07 C 962.44 484.95, 960.41 484.61, 956.96 483.77 C 953.51 482.92, 951.80 482.26, 949.12 480.85 C 946.44 479.44, 945.26 478.55, 943.55 476.74 C 941.83 474.93, 941.17 474.07, 940.54 471.80 C 939.92 469.52, 939.86 468.31, 940.44 465.35 C 941.03 462.40, 941.65 460.61, 943.46 457.04 C 945.27 453.48, 946.71 451.37, 949.49 447.52 C 952.26 443.68, 954.11 441.47, 957.33 437.82 C 960.56 434.17, 962.47 432.20, 965.63 429.28 C 968.80 426.36, 970.68 425.21, 973.15 423.23 C 975.62 421.25, 976.58 420.60, 977.98 419.39 C 979.39 418.19, 979.87 417.90, 980.17 417.19 C 980.48 416.49, 980.29 416.01, 979.49 415.88" style="stroke: black; fill: black;"/><path d="M 1080.90,361.23 C 1080.40 361.68, 1080.05 361.82, 1079.65 363.68 C 1079.24 365.53, 1079.12 366.64, 1078.88 370.50 C 1078.63 374.35, 1078.76 377.00, 1078.42 382.96 C 1078.08 388.93, 1077.79 392.82, 1077.17 400.32 C 1076.55 407.82, 1076.08 412.36, 1075.33 420.46 C 1074.58 428.56, 1074.10 433.03, 1073.43 440.82 C 1072.76 448.61, 1072.42 452.65, 1071.96 459.40 C 1071.51 466.16, 1071.36 469.34, 1071.15 474.60 C 1070.94 479.85, 1070.79 482.26, 1070.93 485.67 C 1071.07 489.08, 1071.48 490.02, 1071.87 491.64 C 1072.26 493.26, 1072.53 493.36, 1072.87 493.76 C 1073.21 494.16, 1073.38 494.11, 1073.55 493.64 C 1073.73 493.17, 1073.75 493.03, 1073.75 491.41 C 1073.75 489.80, 1073.70 488.92, 1073.57 485.56 C 1073.44 482.21, 1073.11 479.85, 1073.11 474.64 C 1073.12 469.42, 1073.23 466.24, 1073.60 459.50 C 1073.96 452.76, 1074.29 448.73, 1074.95 440.95 C 1075.61 433.17, 1076.09 428.71, 1076.89 420.61 C 1077.70 412.52, 1078.20 407.98, 1078.97 400.49 C 1079.74 393.00, 1080.11 389.10, 1080.76 383.16 C 1081.41 377.22, 1081.82 374.60, 1082.21 370.77 C 1082.60 366.94, 1082.71 365.87, 1082.70 364.00 C 1082.69 362.13, 1082.52 361.97, 1082.16 361.41 C 1081.80 360.86, 1081.40 360.78, 1080.90 361.23" style="stroke: black; fill: black;"/><path d="M 1057.18,435.19 C 1057.70 435.62, 1058.05 435.83, 1059.63 435.96 C 1061.21 436.09, 1062.36 436.23, 1065.08 435.84 C 1067.79 435.45, 1069.57 434.83, 1073.20 434.01 C 1076.83 433.19, 1079.08 432.69, 1083.23 431.73 C 1087.37 430.76, 1089.69 430.17, 1093.92 429.17 C 1098.15 428.17, 1100.63 427.57, 1104.36 426.74 C 1108.09 425.92, 1109.96 425.74, 1112.57 425.04 C 1115.19 424.34, 1116.51 423.85, 1117.43 423.25 C 1118.36 422.64, 1118.30 422.25, 1117.21 422.00 C 1116.12 421.76, 1114.68 421.68, 1111.98 422.02 C 1109.27 422.37, 1107.42 422.87, 1103.68 423.74 C 1099.93 424.61, 1097.48 425.38, 1093.26 426.37 C 1089.04 427.37, 1086.74 427.94, 1082.59 428.72 C 1078.45 429.51, 1076.19 429.82, 1072.54 430.30 C 1068.89 430.78, 1067.00 430.65, 1064.33 431.12 C 1061.65 431.58, 1060.64 432.10, 1059.19 432.63 C 1057.73 433.17, 1057.46 433.30, 1057.06 433.81 C 1056.66 434.33, 1056.67 434.76, 1057.18 435.19" style="stroke: black; fill: black;"/><path d="M 1147.71,428.85 C 1147.63 428.12, 1147.25 427.42, 1146.28 426.57 C 1145.32 425.72, 1144.60 425.12, 1142.89 424.58 C 1141.17 424.05, 1140.00 423.64, 1137.71 423.90 C 1135.43 424.15, 1134.09 424.28, 1131.45 425.86 C 1128.81 427.43, 1127.41 428.61, 1124.51 431.76 C 1121.61 434.91, 1119.89 436.97, 1116.94 441.59 C 1113.99 446.22, 1112.33 449.31, 1109.76 454.89 C 1107.18 460.46, 1105.81 463.92, 1104.08 469.48 C 1102.34 475.03, 1101.67 478.06, 1101.08 482.67 C 1100.49 487.27, 1100.42 489.40, 1101.12 492.49 C 1101.82 495.59, 1102.73 496.72, 1104.58 498.16 C 1106.42 499.59, 1107.82 499.98, 1110.36 499.65 C 1112.89 499.31, 1114.47 498.69, 1117.26 496.50 C 1120.06 494.31, 1121.41 492.71, 1124.35 488.69 C 1127.28 484.67, 1128.86 482.18, 1131.94 476.40 C 1135.03 470.61, 1136.67 467.04, 1139.77 459.77 C 1142.87 452.50, 1144.47 448.14, 1147.45 440.03 C 1150.44 431.92, 1152.00 427.30, 1154.71 419.21 C 1157.43 411.12, 1158.79 406.79, 1161.03 399.60 C 1163.27 392.41, 1164.26 388.87, 1165.89 383.26 C 1167.52 377.65, 1168.35 375.20, 1169.17 371.54 C 1169.99 367.89, 1170.20 366.51, 1169.99 364.97 C 1169.78 363.44, 1168.97 362.94, 1168.12 363.86 C 1167.28 364.77, 1166.60 365.87, 1165.75 369.54 C 1164.89 373.21, 1164.70 376.06, 1163.85 382.21 C 1162.99 388.37, 1162.43 392.43, 1161.46 400.32 C 1160.49 408.21, 1159.86 413.11, 1158.98 421.68 C 1158.10 430.25, 1157.67 435.08, 1157.04 443.18 C 1156.42 451.28, 1156.13 455.32, 1155.86 462.18 C 1155.59 469.04, 1155.52 472.25, 1155.67 477.49 C 1155.83 482.74, 1155.96 484.94, 1156.64 488.40 C 1157.32 491.87, 1158.06 493.02, 1159.09 494.80 C 1160.12 496.58, 1160.87 496.82, 1161.80 497.31 C 1162.72 497.80, 1163.31 497.42, 1163.72 497.25 C 1164.12 497.08, 1164.01 496.70, 1163.81 496.45 C 1163.62 496.21, 1163.24 496.59, 1162.76 496.03 C 1162.27 495.46, 1162.11 495.25, 1161.38 493.62 C 1160.66 491.99, 1159.90 491.11, 1159.14 487.87 C 1158.38 484.62, 1157.92 482.53, 1157.58 477.40 C 1157.24 472.28, 1157.26 469.06, 1157.45 462.23 C 1157.63 455.41, 1157.90 451.37, 1158.50 443.30 C 1159.11 435.22, 1159.54 430.39, 1160.47 421.84 C 1161.41 413.29, 1162.05 408.40, 1163.19 400.55 C 1164.33 392.70, 1165.05 388.66, 1166.18 382.59 C 1167.30 376.51, 1168.19 373.83, 1168.84 370.18 C 1169.49 366.53, 1169.54 365.42, 1169.43 364.34 C 1169.32 363.26, 1168.83 363.45, 1168.30 364.79 C 1167.77 366.12, 1167.61 367.40, 1166.78 371.00 C 1165.96 374.60, 1165.61 377.16, 1164.17 382.79 C 1162.73 388.42, 1161.75 391.96, 1159.59 399.16 C 1157.43 406.35, 1156.07 410.69, 1153.37 418.76 C 1150.67 426.83, 1149.11 431.45, 1146.09 439.52 C 1143.07 447.59, 1141.46 451.94, 1138.28 459.12 C 1135.10 466.31, 1133.40 469.84, 1130.21 475.44 C 1127.02 481.04, 1125.31 483.44, 1122.31 487.12 C 1119.31 490.81, 1117.72 491.95, 1115.22 493.86 C 1112.72 495.78, 1111.64 496.22, 1109.81 496.70 C 1107.98 497.18, 1107.24 497.23, 1106.06 496.27 C 1104.88 495.31, 1104.44 494.57, 1103.92 491.90 C 1103.39 489.23, 1103.00 487.30, 1103.44 482.94 C 1103.88 478.58, 1104.47 475.54, 1106.12 470.11 C 1107.78 464.68, 1109.15 461.24, 1111.72 455.80 C 1114.29 450.37, 1116.00 447.33, 1118.99 442.95 C 1121.98 438.57, 1123.79 436.62, 1126.68 433.91 C 1129.57 431.20, 1131.16 430.61, 1133.45 429.40 C 1135.74 428.20, 1136.48 428.05, 1138.12 427.90 C 1139.76 427.75, 1140.39 428.30, 1141.65 428.66 C 1142.91 429.03, 1143.41 429.41, 1144.41 429.73 C 1145.42 430.04, 1146.01 430.40, 1146.67 430.22 C 1147.33 430.05, 1147.78 429.58, 1147.71 428.85" style="stroke: black; fill: black;"/><path d="M 1213.99,419.93 C 1214.12 419.20, 1213.95 418.38, 1213.22 417.40 C 1212.48 416.42, 1211.84 415.65, 1210.30 415.05 C 1208.77 414.45, 1207.63 414.00, 1205.53 414.40 C 1203.42 414.79, 1202.17 415.05, 1199.79 417.02 C 1197.41 418.99, 1196.27 420.51, 1193.62 424.26 C 1190.97 428.01, 1189.36 430.40, 1186.54 435.75 C 1183.72 441.10, 1182.05 444.64, 1179.54 450.99 C 1177.02 457.33, 1175.71 461.27, 1173.98 467.47 C 1172.24 473.67, 1171.54 476.97, 1170.86 481.98 C 1170.18 486.98, 1170.05 489.20, 1170.60 492.50 C 1171.14 495.80, 1171.95 496.99, 1173.59 498.48 C 1175.23 499.97, 1176.52 500.28, 1178.80 499.96 C 1181.08 499.63, 1182.55 499.05, 1185.00 496.84 C 1187.45 494.63, 1188.56 492.91, 1191.06 488.91 C 1193.55 484.92, 1194.89 482.27, 1197.48 476.85 C 1200.08 471.42, 1201.50 467.91, 1204.03 461.80 C 1206.55 455.69, 1207.88 451.96, 1210.11 446.31 C 1212.34 440.66, 1213.58 437.65, 1215.17 433.55 C 1216.76 429.46, 1217.56 427.60, 1218.07 425.83 C 1218.58 424.05, 1218.01 423.64, 1217.72 424.67 C 1217.43 425.71, 1217.02 427.25, 1216.61 431.01 C 1216.21 434.77, 1216.11 437.74, 1215.70 443.49 C 1215.28 449.23, 1214.96 453.16, 1214.55 459.74 C 1214.15 466.31, 1213.88 470.26, 1213.67 476.38 C 1213.46 482.50, 1213.37 485.54, 1213.51 490.33 C 1213.64 495.12, 1213.63 497.20, 1214.35 500.32 C 1215.08 503.44, 1215.87 504.63, 1217.14 505.92 C 1218.41 507.22, 1219.92 506.81, 1220.70 506.80 C 1221.47 506.78, 1221.43 506.28, 1221.03 505.85 C 1220.63 505.42, 1219.47 505.89, 1218.69 504.66 C 1217.91 503.43, 1217.72 502.60, 1217.13 499.71 C 1216.54 496.82, 1216.04 494.88, 1215.75 490.23 C 1215.46 485.58, 1215.51 482.52, 1215.69 476.45 C 1215.87 470.38, 1216.15 466.43, 1216.67 459.89 C 1217.19 453.34, 1217.69 449.45, 1218.30 443.72 C 1218.90 437.99, 1219.54 435.09, 1219.70 431.24 C 1219.85 427.38, 1219.76 425.71, 1219.07 424.44 C 1218.38 423.17, 1217.48 423.25, 1216.24 424.89 C 1215.00 426.54, 1214.47 428.52, 1212.87 432.66 C 1211.26 436.79, 1210.34 439.90, 1208.21 445.57 C 1206.07 451.25, 1204.73 454.97, 1202.18 461.03 C 1199.63 467.09, 1198.16 470.58, 1195.47 475.85 C 1192.77 481.12, 1191.29 483.69, 1188.71 487.37 C 1186.14 491.04, 1184.69 492.24, 1182.59 494.23 C 1180.49 496.23, 1179.70 496.81, 1178.21 497.34 C 1176.72 497.87, 1176.13 497.94, 1175.14 496.88 C 1174.14 495.83, 1173.66 495.01, 1173.24 492.08 C 1172.81 489.16, 1172.48 487.06, 1173.00 482.24 C 1173.53 477.42, 1174.17 474.09, 1175.85 467.99 C 1177.52 461.88, 1178.83 457.95, 1181.36 451.72 C 1183.90 445.49, 1185.61 441.98, 1188.53 436.84 C 1191.44 431.70, 1193.17 429.36, 1195.93 426.02 C 1198.69 422.69, 1200.26 421.78, 1202.33 420.18 C 1204.40 418.58, 1204.98 418.31, 1206.27 418.01 C 1207.55 417.71, 1207.90 418.27, 1208.77 418.68 C 1209.65 419.10, 1209.86 419.62, 1210.63 420.09 C 1211.39 420.56, 1211.93 421.06, 1212.60 421.03 C 1213.27 421.00, 1213.87 420.66, 1213.99 419.93" style="stroke: black; fill: black;"/><path d="M 1263.05,366.84 C 1262.52 367.35, 1262.11 367.53, 1261.68 369.63 C 1261.26 371.73, 1261.22 373.05, 1260.91 377.32 C 1260.60 381.59, 1260.61 384.54, 1260.15 390.97 C 1259.69 397.40, 1259.31 401.62, 1258.61 409.47 C 1257.90 417.32, 1257.37 422.02, 1256.61 430.23 C 1255.85 438.44, 1255.42 442.88, 1254.82 450.51 C 1254.21 458.15, 1253.92 461.94, 1253.60 468.38 C 1253.27 474.82, 1253.22 477.81, 1253.19 482.73 C 1253.16 487.64, 1253.16 489.88, 1253.44 492.96 C 1253.71 496.03, 1254.09 496.74, 1254.56 498.11 C 1255.02 499.47, 1255.42 499.53, 1255.77 499.77 C 1256.11 500.02, 1256.26 499.43, 1256.30 499.33 C 1256.35 499.23, 1255.99 499.23, 1256.01 499.27 C 1256.03 499.31, 1256.26 499.84, 1256.40 499.53 C 1256.54 499.22, 1256.73 499.09, 1256.71 497.72 C 1256.68 496.35, 1256.56 495.70, 1256.27 492.70 C 1255.97 489.69, 1255.45 487.54, 1255.25 482.69 C 1255.05 477.84, 1255.05 474.86, 1255.27 468.45 C 1255.48 462.04, 1255.76 458.25, 1256.33 450.63 C 1256.91 443.02, 1257.34 438.57, 1258.13 430.37 C 1258.93 422.17, 1259.48 417.48, 1260.32 409.64 C 1261.16 401.80, 1261.61 397.58, 1262.34 391.17 C 1263.06 384.76, 1263.46 381.84, 1263.95 377.61 C 1264.44 373.37, 1264.70 372.11, 1264.78 370.00 C 1264.85 367.89, 1264.67 367.67, 1264.33 367.04 C 1263.98 366.41, 1263.58 366.32, 1263.05 366.84" style="stroke: black; fill: black;"/><path d="M 1234.38,438.97 C 1234.92 439.27, 1235.15 439.35, 1236.71 439.23 C 1238.27 439.10, 1239.35 439.13, 1242.17 438.33 C 1244.99 437.54, 1246.80 436.58, 1250.79 435.25 C 1254.78 433.93, 1257.33 433.18, 1262.13 431.70 C 1266.94 430.21, 1269.75 429.32, 1274.81 427.84 C 1279.88 426.35, 1282.55 425.56, 1287.46 424.26 C 1292.36 422.96, 1294.87 422.38, 1299.32 421.33 C 1303.77 420.27, 1305.97 419.80, 1309.72 418.98 C 1313.46 418.15, 1315.28 417.97, 1318.04 417.21 C 1320.80 416.46, 1321.99 416.03, 1323.53 415.22 C 1325.08 414.41, 1325.55 413.95, 1325.76 413.14 C 1325.97 412.34, 1325.73 411.68, 1324.58 411.19 C 1323.44 410.71, 1322.34 410.22, 1320.03 410.71 C 1317.72 411.20, 1316.13 411.78, 1313.02 413.63 C 1309.92 415.48, 1308.10 416.70, 1304.51 419.95 C 1300.91 423.21, 1298.76 425.19, 1295.04 429.89 C 1291.33 434.58, 1289.24 437.65, 1285.92 443.43 C 1282.60 449.21, 1280.90 452.79, 1278.46 458.80 C 1276.02 464.81, 1274.98 468.14, 1273.73 473.49 C 1272.48 478.83, 1272.18 481.44, 1272.20 485.53 C 1272.22 489.63, 1272.55 491.39, 1273.82 493.96 C 1275.09 496.52, 1276.30 497.39, 1278.56 498.37 C 1280.82 499.34, 1282.38 499.58, 1285.12 498.85 C 1287.86 498.12, 1289.37 497.22, 1292.25 494.73 C 1295.12 492.24, 1296.57 490.46, 1299.50 486.39 C 1302.42 482.32, 1303.95 479.76, 1306.87 474.38 C 1309.80 469.00, 1311.35 465.58, 1314.12 459.50 C 1316.90 453.42, 1318.39 449.73, 1320.75 443.97 C 1323.11 438.21, 1324.23 435.15, 1325.91 430.68 C 1327.59 426.21, 1328.54 424.02, 1329.13 421.62 C 1329.71 419.22, 1329.22 418.35, 1328.83 418.67 C 1328.43 419.00, 1327.65 419.98, 1327.14 423.24 C 1326.62 426.49, 1326.63 429.29, 1326.26 434.96 C 1325.89 440.62, 1325.64 444.63, 1325.28 451.56 C 1324.91 458.49, 1324.66 462.78, 1324.44 469.61 C 1324.22 476.43, 1324.07 479.97, 1324.18 485.68 C 1324.28 491.38, 1324.40 493.96, 1324.94 498.13 C 1325.48 502.30, 1325.72 504.14, 1326.88 506.54 C 1328.05 508.93, 1329.23 509.36, 1330.77 510.12 C 1332.32 510.88, 1333.40 510.66, 1334.61 510.34 C 1335.82 510.02, 1336.55 509.13, 1336.83 508.51 C 1337.12 507.90, 1336.58 507.34, 1336.03 507.26 C 1335.48 507.17, 1334.91 507.93, 1334.07 508.10 C 1333.23 508.26, 1332.78 508.64, 1331.84 508.09 C 1330.91 507.55, 1330.32 507.42, 1329.41 505.36 C 1328.50 503.30, 1327.94 501.74, 1327.28 497.79 C 1326.63 493.84, 1326.33 491.25, 1326.14 485.63 C 1325.94 480.00, 1326.06 476.46, 1326.31 469.67 C 1326.55 462.88, 1326.85 458.59, 1327.35 451.69 C 1327.86 444.79, 1328.27 440.80, 1328.84 435.17 C 1329.40 429.54, 1330.09 426.85, 1330.19 423.52 C 1330.29 420.19, 1330.03 419.06, 1329.33 418.50 C 1328.64 417.94, 1327.83 418.46, 1326.71 420.74 C 1325.58 423.02, 1325.27 425.39, 1323.72 429.89 C 1322.16 434.39, 1321.19 437.48, 1318.92 443.24 C 1316.65 449.00, 1315.15 452.67, 1312.36 458.69 C 1309.58 464.71, 1307.99 468.11, 1305.01 473.34 C 1302.02 478.57, 1300.40 481.06, 1297.44 484.84 C 1294.47 488.62, 1292.83 490.10, 1290.17 492.26 C 1287.51 494.41, 1286.27 494.87, 1284.15 495.60 C 1282.02 496.33, 1281.13 496.46, 1279.56 495.89 C 1278.00 495.31, 1277.31 494.82, 1276.33 492.74 C 1275.34 490.66, 1274.75 489.25, 1274.63 485.49 C 1274.51 481.73, 1274.61 479.13, 1275.73 473.93 C 1276.84 468.74, 1277.84 465.42, 1280.22 459.51 C 1282.59 453.60, 1284.29 450.05, 1287.60 444.40 C 1290.90 438.75, 1293.00 435.74, 1296.74 431.27 C 1300.47 426.80, 1302.65 424.89, 1306.27 422.05 C 1309.90 419.21, 1311.88 418.48, 1314.87 417.07 C 1317.86 415.66, 1319.27 415.69, 1321.22 414.98 C 1323.17 414.28, 1323.84 414.05, 1324.61 413.54 C 1325.39 413.03, 1325.49 412.65, 1325.08 412.43 C 1324.68 412.21, 1324.17 412.18, 1322.57 412.45 C 1320.97 412.73, 1319.80 413.05, 1317.10 413.82 C 1314.39 414.58, 1312.71 415.24, 1309.04 416.28 C 1305.37 417.31, 1303.17 417.82, 1298.74 418.98 C 1294.30 420.13, 1291.78 420.73, 1286.87 422.05 C 1281.95 423.37, 1279.26 424.16, 1274.17 425.58 C 1269.08 427.01, 1266.26 427.86, 1261.40 429.16 C 1256.55 430.45, 1253.98 431.08, 1249.88 432.05 C 1245.79 433.01, 1243.74 433.17, 1240.92 433.98 C 1238.11 434.80, 1237.19 435.38, 1235.80 436.13 C 1234.40 436.87, 1234.26 437.14, 1233.97 437.71 C 1233.69 438.28, 1233.83 438.67, 1234.38 438.97" style="stroke: black; fill: black;"/><path d="M 1366.76,475.59 C 1366.35 475.48, 1366.11 475.83, 1366.36 476.18 C 1366.61 476.52, 1367.59 477.20, 1368.00 477.31 C 1368.41 477.42, 1368.65 477.07, 1368.41 476.73 C 1368.16 476.38, 1367.17 475.70, 1366.76 475.59" style="stroke: black; fill: black;"/><path d="M 1438.71,431.23 C 1439.31 430.78, 1439.75 430.13, 1440.11 428.72 C 1440.48 427.31, 1440.71 426.24, 1440.54 424.18 C 1440.37 422.11, 1440.18 420.62, 1439.27 418.38 C 1438.35 416.13, 1437.63 414.87, 1435.97 412.96 C 1434.32 411.05, 1433.28 410.02, 1430.98 408.82 C 1428.68 407.62, 1427.28 407.14, 1424.49 406.95 C 1421.70 406.76, 1420.01 406.93, 1417.04 407.88 C 1414.07 408.84, 1412.40 409.73, 1409.62 411.71 C 1406.83 413.68, 1405.35 415.03, 1403.12 417.78 C 1400.89 420.53, 1399.79 422.21, 1398.46 425.46 C 1397.14 428.70, 1396.67 430.57, 1396.51 434.01 C 1396.35 437.46, 1396.63 439.30, 1397.66 442.68 C 1398.68 446.05, 1399.67 447.70, 1401.63 450.88 C 1403.60 454.06, 1404.99 455.56, 1407.48 458.56 C 1409.98 461.57, 1411.51 463.00, 1414.10 465.92 C 1416.70 468.84, 1418.18 470.30, 1420.46 473.15 C 1422.75 476.01, 1423.91 477.50, 1425.54 480.21 C 1427.17 482.92, 1427.82 484.29, 1428.61 486.70 C 1429.40 489.11, 1429.65 490.20, 1429.49 492.26 C 1429.34 494.32, 1428.97 495.26, 1427.85 496.99 C 1426.74 498.73, 1425.88 499.45, 1423.91 500.92 C 1421.95 502.39, 1420.64 503.18, 1418.03 504.34 C 1415.42 505.49, 1413.77 506.06, 1410.84 506.70 C 1407.91 507.34, 1406.20 507.52, 1403.38 507.53 C 1400.57 507.54, 1399.06 507.34, 1396.78 506.74 C 1394.49 506.14, 1393.41 505.68, 1391.95 504.55 C 1390.49 503.41, 1389.98 502.67, 1389.48 501.07 C 1388.99 499.48, 1389.01 498.48, 1389.48 496.59 C 1389.96 494.70, 1390.45 493.68, 1391.84 491.62 C 1393.23 489.56, 1394.14 488.43, 1396.44 486.29 C 1398.74 484.15, 1400.24 483.03, 1403.33 480.93 C 1406.43 478.83, 1408.27 477.83, 1411.91 475.79 C 1415.55 473.76, 1417.58 472.81, 1421.52 470.77 C 1425.45 468.73, 1427.53 467.73, 1431.59 465.60 C 1435.66 463.46, 1437.78 462.42, 1441.83 460.09 C 1445.87 457.77, 1447.97 456.58, 1451.82 453.96 C 1455.66 451.35, 1457.59 449.97, 1461.05 447.02 C 1464.51 444.08, 1466.23 442.45, 1469.13 439.23 C 1472.03 436.01, 1473.39 434.25, 1475.56 430.93 C 1477.73 427.61, 1478.68 425.83, 1479.99 422.63 C 1481.29 419.42, 1481.85 417.72, 1482.10 414.90 C 1482.35 412.07, 1482.10 410.61, 1481.24 408.50 C 1480.37 406.39, 1479.60 405.40, 1477.76 404.35 C 1475.93 403.30, 1474.57 402.86, 1472.04 403.27 C 1469.51 403.67, 1467.93 404.28, 1465.13 406.37 C 1462.34 408.46, 1460.83 410.03, 1458.05 413.72 C 1455.27 417.40, 1453.67 419.80, 1451.24 424.80 C 1448.81 429.80, 1447.53 432.93, 1445.92 438.71 C 1444.32 444.48, 1443.61 447.84, 1443.20 453.68 C 1442.79 459.52, 1442.87 462.67, 1443.89 467.92 C 1444.90 473.17, 1445.86 475.71, 1448.27 479.93 C 1450.68 484.14, 1452.42 485.98, 1455.93 488.98 C 1459.45 491.98, 1461.64 493.15, 1465.83 494.93 C 1470.02 496.71, 1472.43 497.22, 1476.87 497.87 C 1481.30 498.51, 1483.99 498.35, 1488.01 498.18 C 1492.03 498.00, 1494.08 497.71, 1496.95 496.98 C 1499.83 496.24, 1501.36 495.26, 1502.37 494.50 C 1503.38 493.75, 1503.19 493.31, 1501.99 493.20 C 1500.79 493.10, 1499.18 493.57, 1496.35 493.98 C 1493.52 494.39, 1491.67 494.99, 1487.85 495.25 C 1484.02 495.51, 1481.43 495.79, 1477.22 495.27 C 1473.00 494.76, 1470.73 494.28, 1466.77 492.67 C 1462.82 491.06, 1460.75 489.97, 1457.43 487.20 C 1454.11 484.43, 1452.46 482.77, 1450.16 478.83 C 1447.86 474.90, 1446.90 472.52, 1445.92 467.52 C 1444.93 462.52, 1444.82 459.47, 1445.23 453.82 C 1445.64 448.18, 1446.33 444.88, 1447.96 439.29 C 1449.58 433.70, 1450.89 430.62, 1453.36 425.87 C 1455.83 421.11, 1457.52 418.81, 1460.30 415.50 C 1463.08 412.19, 1464.79 411.08, 1467.28 409.32 C 1469.77 407.57, 1470.93 407.22, 1472.75 406.73 C 1474.57 406.24, 1475.27 406.32, 1476.39 406.88 C 1477.51 407.44, 1477.91 408.00, 1478.35 409.54 C 1478.79 411.07, 1478.85 412.16, 1478.58 414.55 C 1478.31 416.93, 1478.09 418.50, 1477.01 421.47 C 1475.92 424.45, 1475.14 426.21, 1473.17 429.41 C 1471.20 432.62, 1469.92 434.35, 1467.17 437.49 C 1464.42 440.63, 1462.77 442.24, 1459.42 445.12 C 1456.08 448.01, 1454.20 449.37, 1450.44 451.93 C 1446.67 454.50, 1444.60 455.67, 1440.60 457.96 C 1436.60 460.24, 1434.49 461.27, 1430.43 463.36 C 1426.37 465.45, 1424.30 466.42, 1420.32 468.41 C 1416.34 470.39, 1414.29 471.31, 1410.54 473.28 C 1406.80 475.25, 1404.90 476.20, 1401.60 478.25 C 1398.29 480.31, 1396.65 481.33, 1394.02 483.55 C 1391.39 485.77, 1390.10 486.89, 1388.46 489.35 C 1386.82 491.81, 1386.27 493.29, 1385.83 495.85 C 1385.40 498.40, 1385.49 499.87, 1386.28 502.14 C 1387.06 504.40, 1387.87 505.53, 1389.76 507.18 C 1391.65 508.83, 1393.01 509.55, 1395.73 510.39 C 1398.46 511.23, 1400.20 511.36, 1403.38 511.37 C 1406.56 511.38, 1408.39 511.12, 1411.64 510.44 C 1414.89 509.76, 1416.68 509.25, 1419.62 507.98 C 1422.57 506.70, 1424.11 505.89, 1426.37 504.06 C 1428.62 502.22, 1429.59 501.11, 1430.89 498.81 C 1432.19 496.50, 1432.64 495.17, 1432.86 492.53 C 1433.09 489.89, 1432.92 488.41, 1432.01 485.60 C 1431.11 482.79, 1430.18 481.35, 1428.35 478.47 C 1426.51 475.59, 1425.25 474.12, 1422.85 471.21 C 1420.45 468.30, 1418.95 466.84, 1416.34 463.92 C 1413.74 461.01, 1412.24 459.56, 1409.84 456.63 C 1407.43 453.69, 1406.13 452.21, 1404.32 449.23 C 1402.51 446.25, 1401.67 444.75, 1400.77 441.74 C 1399.88 438.73, 1399.67 437.18, 1399.84 434.18 C 1400.01 431.19, 1400.41 429.59, 1401.61 426.76 C 1402.81 423.93, 1403.81 422.43, 1405.84 420.03 C 1407.86 417.64, 1409.26 416.45, 1411.75 414.79 C 1414.23 413.13, 1415.76 412.53, 1418.26 411.74 C 1420.77 410.95, 1422.09 410.76, 1424.27 410.85 C 1426.45 410.94, 1427.47 411.26, 1429.16 412.21 C 1430.86 413.15, 1431.59 414.01, 1432.74 415.57 C 1433.89 417.13, 1434.28 418.18, 1434.91 420.02 C 1435.53 421.86, 1435.55 423.06, 1435.87 424.77 C 1436.18 426.48, 1436.22 427.31, 1436.47 428.56 C 1436.72 429.80, 1436.65 430.44, 1437.10 430.98 C 1437.55 431.51, 1438.11 431.68, 1438.71 431.23" style="stroke: black; fill: black;"/></svg>